<svg width="160" height="161" viewBox="0 0 160 161" fill="none" xmlns="http://www.w3.org/2000/svg">
<path d="M24 1.17041H136C148.979 1.17041 159.5 11.6917 159.5 24.6704V136.67C159.5 149.649 148.979 160.17 136 160.17H24C11.0213 160.17 0.5 149.649 0.5 136.67V24.6704C0.5 11.6917 11.0213 1.17041 24 1.17041Z" fill="url(#paint0_linear_16420_4410)"/>
<path d="M24 1.17041H136C148.979 1.17041 159.5 11.6917 159.5 24.6704V136.67C159.5 149.649 148.979 160.17 136 160.17H24C11.0213 160.17 0.5 149.649 0.5 136.67V24.6704C0.5 11.6917 11.0213 1.17041 24 1.17041Z" stroke="#1E1E1E"/>
<path d="M87.4169 127.006V121.098C87.4169 115.521 90.236 110.324 94.8998 107.284L100.964 103.327L79.9907 63.1553L59.0177 103.327L65.0911 107.284C69.7549 110.324 72.5645 115.512 72.574 121.079V126.996L43.5693 108.014L80.0002 34.3354L116.431 108.014L87.4264 127.006H87.4169Z" fill="#25F2D0"/>
<defs>
<linearGradient id="paint0_linear_16420_4410" x1="156.877" y1="159.751" x2="-26.0111" y2="56.6354" gradientUnits="userSpaceOnUse">
<stop stop-color="#1A1A1A"/>
<stop offset="0.39" stop-color="#121212"/>
</linearGradient>
</defs>
</svg>
