<svg width="180" height="24" viewBox="0 0 180 24" fill="none" xmlns="http://www.w3.org/2000/svg">
<path d="M11.2047 23.4984V22.0525C11.2047 20.6877 11.911 19.4156 13.0796 18.6718L14.5989 17.7032L9.34409 7.87168L4.08932 17.7032L5.611 18.6718C6.77952 19.4156 7.48347 20.6854 7.48584 22.0478V23.496L0.21875 18.8502L9.34646 0.818359L18.4742 18.8502L11.2071 23.4984H11.2047Z" fill="#0EBFA1"/>
<path d="M43.699 6.65494C43.6014 6.82377 43.4963 6.94489 43.3874 7.0183C43.2785 7.09537 43.1396 7.13208 42.9782 7.13208C42.8167 7.13208 42.6215 7.06968 42.4225 6.94856C42.2235 6.82744 41.9832 6.68797 41.7054 6.53749C41.4276 6.387 41.1047 6.24753 40.733 6.12641C40.3613 6.00529 39.9221 5.93922 39.419 5.93922C38.9609 5.93922 38.563 5.99428 38.2213 6.10072C37.8797 6.20716 37.5906 6.35764 37.3578 6.5485C37.125 6.73935 36.9523 6.97058 36.8359 7.23485C36.7233 7.50278 36.6632 7.79641 36.6632 8.11572C36.6632 8.52313 36.7796 8.8608 37.0124 9.1324C37.2452 9.40401 37.553 9.63524 37.936 9.82609C38.3189 10.017 38.7544 10.1895 39.2463 10.3399C39.7343 10.4904 40.2374 10.6519 40.7518 10.8244C41.2661 10.9969 41.7692 11.1951 42.2573 11.4227C42.7454 11.6502 43.1847 11.9365 43.5676 12.2852C43.9506 12.6339 44.2584 13.056 44.4912 13.5588C44.724 14.0616 44.8404 14.6709 44.8404 15.3903C44.8404 16.1721 44.7052 16.9025 44.4311 17.5852C44.1571 18.2678 43.7591 18.8624 43.2335 19.3689C42.7078 19.8754 42.0658 20.2755 41.3074 20.5655C40.5491 20.8554 39.678 21.0022 38.7019 21.0022C38.1387 21.0022 37.5831 20.9472 37.0387 20.8407C36.4905 20.7343 35.9686 20.5801 35.4656 20.3783C34.9625 20.1801 34.4932 19.9415 34.0501 19.6589C33.6109 19.3799 33.2167 19.068 32.875 18.7266L33.8436 17.1851C33.9262 17.075 34.0314 16.9796 34.1628 16.9025C34.2942 16.8254 34.4331 16.7887 34.5795 16.7887C34.7822 16.7887 35.0038 16.8694 35.2403 17.0346C35.4768 17.1998 35.7584 17.3796 36.085 17.5778C36.4117 17.776 36.7946 17.9595 37.2301 18.121C37.6656 18.2862 38.1913 18.3669 38.8032 18.3669C39.7418 18.3669 40.4665 18.1504 40.9808 17.7136C41.4952 17.2805 41.7505 16.6566 41.7505 15.8418C41.7505 15.3866 41.6341 15.0159 41.4013 14.7296C41.1685 14.4434 40.8607 14.2011 40.4777 14.0066C40.0948 13.8121 39.6593 13.6469 39.1674 13.5111C38.6793 13.3753 38.18 13.2285 37.6732 13.067C37.1663 12.9092 36.6707 12.7146 36.1789 12.4944C35.6908 12.2705 35.2516 11.9806 34.8686 11.6209C34.4856 11.2612 34.1778 10.8134 33.945 10.2739C33.7122 9.73434 33.5958 9.07001 33.5958 8.28089C33.5958 7.64959 33.7235 7.03665 33.9826 6.43839C34.2416 5.84012 34.6133 5.30793 35.1014 4.84547C35.5895 4.38301 36.1939 4.0123 36.9148 3.73336C37.6319 3.45441 38.4578 3.31494 39.3852 3.31494C40.4289 3.31494 41.3938 3.47277 42.2723 3.79208C43.1546 4.1114 43.9055 4.55918 44.525 5.13175L43.7065 6.65126L43.699 6.65494Z" fill="white"/>
<path d="M58.3475 3.50586C59.5301 3.50586 60.5551 3.64166 61.4186 3.91326C62.2821 4.18487 62.9992 4.56291 63.5586 5.05106C64.1218 5.53922 64.5385 6.11913 64.8126 6.79814C65.0867 7.47715 65.2218 8.21855 65.2218 9.02235C65.2218 9.82616 65.0792 10.6263 64.7938 11.3273C64.5085 12.0283 64.0805 12.6266 63.5098 13.1294C62.9391 13.6323 62.2221 14.0213 61.3623 14.3003C60.5025 14.5792 59.4963 14.7187 58.3475 14.7187H55.8883V20.8078H52.5957V3.50586H58.3475ZM58.3475 12.2045C58.9519 12.2045 59.4776 12.1311 59.9243 11.9843C60.3749 11.8375 60.7466 11.6246 61.0432 11.3493C61.3398 11.0741 61.5613 10.7401 61.7115 10.3437C61.8579 9.94728 61.933 9.50684 61.933 9.02235C61.933 8.53787 61.8579 8.14148 61.7115 7.7671C61.565 7.39273 61.3435 7.07341 61.0507 6.80915C60.7578 6.54489 60.3861 6.34302 59.9356 6.20355C59.4851 6.06407 58.9557 5.99434 58.3437 5.99434H55.8846V12.2045H58.3437H58.3475Z" fill="white"/>
<path d="M75.9484 6.06774V10.8649H82.1395V13.3423H75.9484V18.2349H83.8064V20.8078H72.6445V3.50586H83.8064V6.06774H75.9484Z" fill="white"/>
<path d="M106.776 20.809H104.231C103.946 20.809 103.713 20.7392 103.533 20.5998C103.352 20.4603 103.217 20.2878 103.131 20.0786L101.809 16.5477H94.4769L93.1553 20.0786C93.0915 20.2621 92.9638 20.4309 92.7761 20.5814C92.5884 20.7319 92.3556 20.809 92.0778 20.809H89.5098L96.4742 3.51074H99.8269L106.776 20.809ZM100.965 14.2758L98.8095 8.52073C98.7044 8.26381 98.5917 7.96284 98.4791 7.61049C98.3665 7.25814 98.2501 6.8801 98.1374 6.47269C98.0323 6.8801 97.9234 7.26181 97.8071 7.61416C97.6944 7.97019 97.5818 8.27849 97.4767 8.54276L95.3366 14.2721H100.965V14.2758Z" fill="white"/>
<path d="M127.322 20.8078H124.349C123.785 20.8078 123.376 20.5912 123.125 20.1618L119.404 14.6233C119.265 14.4141 119.111 14.2672 118.946 14.1792C118.781 14.0911 118.533 14.047 118.206 14.047H116.798V20.8078H113.506V3.50586H118.905C120.102 3.50586 121.135 3.62698 121.995 3.86922C122.854 4.11146 123.56 4.4528 124.112 4.89324C124.664 5.33368 125.069 5.85487 125.329 6.46781C125.588 7.07708 125.719 7.74875 125.719 8.48282C125.719 9.0664 125.633 9.61695 125.456 10.1345C125.28 10.652 125.028 11.1218 124.698 11.5475C124.367 11.9696 123.958 12.3403 123.474 12.6596C122.99 12.979 122.434 13.2285 121.814 13.4121C122.028 13.5332 122.224 13.6727 122.404 13.8378C122.584 14.003 122.746 14.1938 122.892 14.4177L127.322 20.8078ZM118.852 11.7384C119.472 11.7384 120.012 11.6613 120.474 11.5108C120.936 11.3603 121.315 11.1511 121.612 10.8832C121.908 10.6153 122.134 10.2996 122.28 9.93259C122.426 9.56556 122.501 9.16183 122.501 8.72506C122.501 7.84785 122.205 7.17251 121.615 6.70271C121.022 6.23291 120.121 5.99801 118.905 5.99801H116.798V11.7421H118.856L118.852 11.7384Z" fill="white"/>
<path d="M140.23 3.50586C141.39 3.50586 142.381 3.6123 143.203 3.82885C144.026 4.0454 144.701 4.35003 145.227 4.7501C145.753 5.15016 146.139 5.63098 146.383 6.19621C146.627 6.76144 146.751 7.40007 146.751 8.11211C146.751 8.51952 146.691 8.90857 146.567 9.27928C146.443 9.64998 146.256 9.99866 145.997 10.3216C145.738 10.6446 145.415 10.9383 145.017 11.2025C144.619 11.4668 144.149 11.6907 143.601 11.8742C146.03 12.4101 147.247 13.691 147.247 15.728C147.247 16.4621 147.104 17.1411 146.819 17.7614C146.534 18.3817 146.117 18.9212 145.572 19.369C145.024 19.8204 144.352 20.1728 143.553 20.426C142.753 20.683 141.84 20.8078 140.812 20.8078H134.129V3.50586H140.222H140.23ZM137.425 5.99434V10.997H140.046C141.172 10.997 142.021 10.7988 142.599 10.3987C143.173 9.99866 143.462 9.36736 143.462 8.4975C143.462 7.62763 143.2 6.95596 142.678 6.57058C142.156 6.18887 141.341 5.99801 140.23 5.99801H137.425V5.99434ZM140.755 18.2936C141.367 18.2936 141.882 18.2202 142.299 18.077C142.715 17.9339 143.046 17.743 143.297 17.5045C143.549 17.2659 143.725 16.987 143.838 16.6676C143.947 16.3483 144.003 16.0106 144.003 15.651C144.003 15.2913 143.943 14.9389 143.819 14.6416C143.695 14.3407 143.504 14.0874 143.245 13.8745C142.982 13.6616 142.648 13.5001 142.235 13.39C141.822 13.2799 141.326 13.2212 140.748 13.2212H137.433V18.2936H140.763H140.755Z" fill="white"/>
<path d="M158.452 20.8078H155.148V3.50586H158.452V20.8041V20.8078Z" fill="white"/>
<path d="M179.662 6.15338H174.327V20.809H171.034V6.15338H165.699V3.51074H179.662V6.15338Z" fill="white"/>
</svg>
