<svg width="118" height="34" viewBox="0 0 118 34" fill="none" xmlns="http://www.w3.org/2000/svg">
<path d="M105.977 4.56331H115.828V1H104.509L99.8281 5.68121V11.655H112.265V15.2183H99.8281V18.7816H115.828V8.09169H103.391V7.14845L105.977 4.56331Z" fill="#0B0B0B"/>
<path d="M80.2539 5.68121V18.7816H83.8172V7.14845L86.4024 4.56331H92.6906V18.7816H96.2539V1H84.9351L80.2539 5.68121Z" fill="#0B0B0B"/>
<path d="M21.5781 19.8996V33H37.5781V29.4367H25.1414V25.8734H37.5781V15.2184H26.2593L21.5781 19.8996ZM34.0148 18.7817V22.345H25.1065V21.4018L27.6917 18.8166H34.0148V18.7817Z" fill="#0B0B0B"/>
<path d="M60.7031 5.68121V18.7816H76.7031V15.2183H64.2664V11.655H76.7031V1H65.3843L60.7031 5.68121ZM73.1398 4.56331V8.12662H64.2315V7.18339L66.8167 4.59824H73.1398V4.56331Z" fill="#0B0B0B"/>
<path d="M5.56331 16.3361V4.56323H2V32.9999H5.56331V21.3667L8.14846 18.7816H14.4367V32.9999H18V15.2182H6.68121L5.56331 16.3361Z" fill="#0B0B0B"/>
<path d="M44.6899 1H39.345L34 6.34497V11.655H37.5633V7.81222L40.8122 4.56331H44.6899V1Z" fill="#0B0B0B"/>
<path d="M60.7048 26.1875L57.4558 29.4364H53.5781V32.9997H58.9231L64.2681 27.6548V22.3447H60.7048V26.1875Z" fill="#0B0B0B"/>
<path d="M53.5617 25.9084H57.125V21.0874L51.9896 17.0001L57.125 12.9127V8.0918H53.5617V11.201L49.125 14.7293L44.6883 11.201V8.0918H41.125V12.9127L46.2604 17.0001L41.125 21.0874V25.9084H44.6883V22.7992L49.125 19.2708L53.5617 22.7992V25.9084Z" fill="#0B0B0B"/>
</svg>
